<svg width="86" height="86" viewBox="0 0 86 86" fill="none" xmlns="http://www.w3.org/2000/svg">
<g clip-path="url(#clip0_12_400)">
<path d="M41.0542 49.6275C35.6744 48.186 31.0876 44.6664 28.3028 39.8431C25.5181 35.0197 24.7634 29.2876 26.2049 23.9079C27.6464 18.5281 31.166 13.9413 35.9894 11.1565C40.8127 8.37175 46.5448 7.61711 51.9246 9.05861C57.3043 10.5001 61.8911 14.0197 64.6759 18.8431C67.4607 23.6664 68.2153 29.3985 66.7738 34.7783C65.3323 40.158 61.8127 44.7448 56.9894 47.5296C52.166 50.3144 46.4339 51.069 41.0542 49.6275ZM43.7718 39.4853C46.4617 40.206 49.3277 39.8287 51.7394 38.4363C54.1511 37.0439 55.9108 34.7505 56.6316 32.0607C57.3524 29.3708 56.975 26.5047 55.5826 24.0931C54.1903 21.6814 51.8969 19.9216 49.207 19.2008C46.5171 18.4801 43.6511 18.8574 41.2394 20.2498C38.8277 21.6422 37.0679 23.9356 36.3472 26.6255C35.6264 29.3153 36.0037 32.1814 37.3961 34.5931C38.7885 37.0047 41.0819 38.7645 43.7718 39.4853ZM54.8036 52.4058L47.3302 80.2969L37.4307 63.1505L20.2843 73.05L27.7577 45.1588C30.9763 48.9976 35.2986 51.7524 40.1374 53.0489C44.9762 54.3455 50.0969 54.1209 54.8036 52.4058Z" fill="#FFBD5A"/>
</g>
<defs>
<clipPath id="clip0_12_400">
<rect width="70" height="70" fill="white" transform="translate(18.1172) rotate(15)"/>
</clipPath>
</defs>
</svg>
